# xmcd
#
# Track frame offsets:
# 150
# 21972
# 41273
# 70612
# 87376
# 112777
# 135842
# 157795
# 186484
# 207472
# 224634
# 247527
# 266433
# 287891
# 308581
# 325242
#
# Disc length: 4682 seconds
#
#
# Revision: 0
# Processed by: cddbd v1.5.2PL0 Copyright (c) Steve Scherf et al.
# Submitted via: FreeRIP 2.951 
#
DISCID=d5124810
DTITLE=Diego "Pet" Petracca - Bomvivant II
DYEAR=2006
DGENRE=Blues
TTITLE0=01_Buenos Aires Blues.
TTITLE1=02_Despabilate soul.
TTITLE2=03_Bohemia soledad.
TTITLE3=04_El ruedo de un mundo desconocido.
TTITLE4=05_Sueños de cabaret.
TTITLE5=06_Blues para Lolita.
TTITLE6=07_Blues de los huesos y la calma.
TTITLE7=08_Canción de Catalina.
TTITLE8=09_Princesita.
TTITLE9=10_Visita inesperada.
TTITLE10=11_Tan joven y tan zorra (like a Bomvivant).
TTITLE11=12_La hiena traicionera y el ingenuo león.
TTITLE12=13_Lobo negro y lobo blanco.
TTITLE13=14_Jesucristo funk.
TTITLE14=15_Mil ovejas y un lobo manso.
TTITLE15=16_Melancólica amistad.
EXTD=http://bomvivant.blogspirit.com
EXTT0=
EXTT1=
EXTT2=
EXTT3=
EXTT4=
EXTT5=
EXTT6=
EXTT7=
EXTT8=
EXTT9=
EXTT10=
EXTT11=
EXTT12=
EXTT13=
EXTT14=
EXTT15=
PLAYORDER=
